<mxfile host="Electron" modified="2025-06-12T00:51:57.003Z" agent="Mozilla/5.0 (Windows NT 10.0; Win64; x64) AppleWebKit/537.36 (KHTML, like Gecko) draw.io/21.2.1 Chrome/112.0.5615.87 Electron/24.1.2 Safari/537.36" etag="JvgXJvcYVo0kmoZRYcZ8" version="21.2.1" type="device">
  <diagram name="第 1 页" id="BMNRoMhw_H8E-fWVeAIa">
    <mxGraphModel dx="989" dy="582" grid="1" gridSize="10" guides="1" tooltips="1" connect="1" arrows="1" fold="1" page="1" pageScale="1" pageWidth="827" pageHeight="1169" math="0" shadow="0">
      <root>
        <mxCell id="0" />
        <mxCell id="1" parent="0" />
        <mxCell id="iSnh0fXEwwqfRtk5rcvv-1" value="" style="rounded=0;whiteSpace=wrap;html=1;fillColor=#ffe6cc;strokeColor=#d79b00;" vertex="1" parent="1">
          <mxGeometry x="40" y="160" width="40" height="40" as="geometry" />
        </mxCell>
        <mxCell id="iSnh0fXEwwqfRtk5rcvv-2" value="" style="rounded=0;whiteSpace=wrap;html=1;fillColor=#ffe6cc;strokeColor=#d79b00;" vertex="1" parent="1">
          <mxGeometry y="160" width="40" height="40" as="geometry" />
        </mxCell>
        <mxCell id="iSnh0fXEwwqfRtk5rcvv-3" style="edgeStyle=orthogonalEdgeStyle;rounded=0;orthogonalLoop=1;jettySize=auto;html=1;exitX=0.5;exitY=0;exitDx=0;exitDy=0;" edge="1" parent="1" source="iSnh0fXEwwqfRtk5rcvv-4">
          <mxGeometry relative="1" as="geometry">
            <mxPoint x="171" y="40" as="targetPoint" />
          </mxGeometry>
        </mxCell>
        <mxCell id="iSnh0fXEwwqfRtk5rcvv-4" value="" style="rounded=0;whiteSpace=wrap;html=1;fillColor=#60a917;strokeColor=#2D7600;fontColor=#ffffff;" vertex="1" parent="1">
          <mxGeometry x="161" y="160" width="20" height="40" as="geometry" />
        </mxCell>
        <mxCell id="iSnh0fXEwwqfRtk5rcvv-5" value="" style="rounded=0;whiteSpace=wrap;html=1;fillColor=#fff2cc;gradientColor=#ffd966;strokeColor=#d6b656;" vertex="1" parent="1">
          <mxGeometry x="761" y="159.99999999999997" width="20" height="40" as="geometry" />
        </mxCell>
        <mxCell id="iSnh0fXEwwqfRtk5rcvv-6" value="" style="rounded=0;whiteSpace=wrap;html=1;fillColor=#fff2cc;gradientColor=#ffd966;strokeColor=#d6b656;" vertex="1" parent="1">
          <mxGeometry x="680" y="159.99999999999997" width="20" height="40" as="geometry" />
        </mxCell>
        <mxCell id="iSnh0fXEwwqfRtk5rcvv-7" value="" style="rounded=0;whiteSpace=wrap;html=1;fillColor=#fff2cc;gradientColor=#ffd966;strokeColor=#d6b656;" vertex="1" parent="1">
          <mxGeometry x="660" y="159.99999999999997" width="20" height="40" as="geometry" />
        </mxCell>
        <mxCell id="iSnh0fXEwwqfRtk5rcvv-8" value="" style="rounded=0;whiteSpace=wrap;html=1;fillColor=#fff2cc;gradientColor=#ffd966;strokeColor=#d6b656;" vertex="1" parent="1">
          <mxGeometry x="640" y="159.99999999999997" width="20" height="40" as="geometry" />
        </mxCell>
        <mxCell id="iSnh0fXEwwqfRtk5rcvv-9" value="" style="rounded=0;whiteSpace=wrap;html=1;fillColor=#fff2cc;gradientColor=#ffd966;strokeColor=#d6b656;" vertex="1" parent="1">
          <mxGeometry x="620" y="159.99999999999997" width="20" height="40" as="geometry" />
        </mxCell>
        <mxCell id="iSnh0fXEwwqfRtk5rcvv-10" value="" style="rounded=0;whiteSpace=wrap;html=1;fillColor=#fff2cc;gradientColor=#ffd966;strokeColor=#d6b656;" vertex="1" parent="1">
          <mxGeometry x="600" y="159.99999999999997" width="20" height="40" as="geometry" />
        </mxCell>
        <mxCell id="iSnh0fXEwwqfRtk5rcvv-11" value="" style="rounded=0;whiteSpace=wrap;html=1;fillColor=#fff2cc;gradientColor=#ffd966;strokeColor=#d6b656;" vertex="1" parent="1">
          <mxGeometry x="580" y="159.99999999999997" width="20" height="40" as="geometry" />
        </mxCell>
        <mxCell id="iSnh0fXEwwqfRtk5rcvv-12" value="" style="rounded=0;whiteSpace=wrap;html=1;fillColor=#fff2cc;gradientColor=#ffd966;strokeColor=#d6b656;" vertex="1" parent="1">
          <mxGeometry x="560" y="159.99999999999997" width="20" height="40" as="geometry" />
        </mxCell>
        <mxCell id="iSnh0fXEwwqfRtk5rcvv-13" value="X" style="rounded=0;whiteSpace=wrap;html=1;fillColor=#f8cecc;gradientColor=#ea6b66;strokeColor=#b85450;" vertex="1" parent="1">
          <mxGeometry x="300" y="160" width="20" height="40" as="geometry" />
        </mxCell>
        <mxCell id="iSnh0fXEwwqfRtk5rcvv-14" value="X" style="rounded=0;whiteSpace=wrap;html=1;fillColor=#f8cecc;gradientColor=#ea6b66;strokeColor=#b85450;" vertex="1" parent="1">
          <mxGeometry x="280" y="160" width="20" height="40" as="geometry" />
        </mxCell>
        <mxCell id="iSnh0fXEwwqfRtk5rcvv-15" value="X" style="rounded=0;whiteSpace=wrap;html=1;fillColor=#f8cecc;gradientColor=#ea6b66;strokeColor=#b85450;" vertex="1" parent="1">
          <mxGeometry x="260" y="160" width="20" height="40" as="geometry" />
        </mxCell>
        <mxCell id="iSnh0fXEwwqfRtk5rcvv-16" value="X" style="rounded=0;whiteSpace=wrap;html=1;fillColor=#f8cecc;gradientColor=#ea6b66;strokeColor=#b85450;" vertex="1" parent="1">
          <mxGeometry x="240" y="160" width="20" height="40" as="geometry" />
        </mxCell>
        <mxCell id="iSnh0fXEwwqfRtk5rcvv-17" value="" style="shape=curlyBracket;whiteSpace=wrap;html=1;rounded=1;flipH=1;labelPosition=right;verticalLabelPosition=middle;align=left;verticalAlign=middle;rotation=0;direction=north;" vertex="1" parent="1">
          <mxGeometry x="161" y="200.52" width="319" height="20" as="geometry" />
        </mxCell>
        <mxCell id="iSnh0fXEwwqfRtk5rcvv-18" value="" style="shape=curlyBracket;whiteSpace=wrap;html=1;rounded=1;labelPosition=left;verticalLabelPosition=middle;align=right;verticalAlign=middle;rotation=-90;" vertex="1" parent="1">
          <mxGeometry x="111" y="170" width="20" height="80" as="geometry" />
        </mxCell>
        <mxCell id="iSnh0fXEwwqfRtk5rcvv-19" value="" style="rounded=0;whiteSpace=wrap;html=1;fillColor=#b1ddf0;strokeColor=#10739e;" vertex="1" parent="1">
          <mxGeometry x="480" y="159.99999999999997" width="40" height="40" as="geometry" />
        </mxCell>
        <mxCell id="iSnh0fXEwwqfRtk5rcvv-20" value="" style="rounded=0;whiteSpace=wrap;html=1;fillColor=#b1ddf0;strokeColor=#10739e;" vertex="1" parent="1">
          <mxGeometry x="520" y="159.99999999999997" width="40" height="40" as="geometry" />
        </mxCell>
        <mxCell id="iSnh0fXEwwqfRtk5rcvv-21" value="" style="endArrow=none;dashed=1;html=1;dashPattern=1 3;strokeWidth=2;rounded=0;entryX=0;entryY=0.75;entryDx=0;entryDy=0;exitX=1;exitY=0.75;exitDx=0;exitDy=0;" edge="1" parent="1" source="iSnh0fXEwwqfRtk5rcvv-6" target="iSnh0fXEwwqfRtk5rcvv-5">
          <mxGeometry width="50" height="50" relative="1" as="geometry">
            <mxPoint x="631" y="319.47999999999996" as="sourcePoint" />
            <mxPoint x="681" y="269.47999999999996" as="targetPoint" />
          </mxGeometry>
        </mxCell>
        <mxCell id="iSnh0fXEwwqfRtk5rcvv-22" value="" style="shape=curlyBracket;whiteSpace=wrap;html=1;rounded=1;labelPosition=left;verticalLabelPosition=middle;align=right;verticalAlign=middle;rotation=-90;" vertex="1" parent="1">
          <mxGeometry x="509.92" y="170.44" width="20" height="81.13" as="geometry" />
        </mxCell>
        <mxCell id="iSnh0fXEwwqfRtk5rcvv-23" value="" style="shape=curlyBracket;whiteSpace=wrap;html=1;rounded=1;labelPosition=left;verticalLabelPosition=middle;align=right;verticalAlign=middle;rotation=-90;" vertex="1" parent="1">
          <mxGeometry x="660.74" y="100.25999999999999" width="20" height="219.48" as="geometry" />
        </mxCell>
        <mxCell id="iSnh0fXEwwqfRtk5rcvv-24" value="tag&lt;br&gt;2Bytes" style="text;strokeColor=none;fillColor=none;spacingLeft=4;spacingRight=4;overflow=hidden;rotatable=0;points=[[0,0.5],[1,0.5]];portConstraint=eastwest;fontSize=12;whiteSpace=wrap;html=1;align=center;" vertex="1" parent="1">
          <mxGeometry x="12" y="220" width="60" height="40" as="geometry" />
        </mxCell>
        <mxCell id="iSnh0fXEwwqfRtk5rcvv-25" value="command&lt;br&gt;2Bytes" style="text;strokeColor=none;fillColor=none;spacingLeft=4;spacingRight=4;overflow=hidden;rotatable=0;points=[[0,0.5],[1,0.5]];portConstraint=eastwest;fontSize=12;whiteSpace=wrap;html=1;align=center;" vertex="1" parent="1">
          <mxGeometry x="305.5" y="219.48" width="70" height="40" as="geometry" />
        </mxCell>
        <mxCell id="iSnh0fXEwwqfRtk5rcvv-26" value="" style="edgeStyle=orthogonalEdgeStyle;rounded=0;orthogonalLoop=1;jettySize=auto;html=1;" edge="1" parent="1" source="iSnh0fXEwwqfRtk5rcvv-27">
          <mxGeometry relative="1" as="geometry">
            <mxPoint x="191" y="80" as="targetPoint" />
          </mxGeometry>
        </mxCell>
        <mxCell id="iSnh0fXEwwqfRtk5rcvv-27" value="" style="rounded=0;whiteSpace=wrap;html=1;fillColor=#6a00ff;strokeColor=#3700CC;fontColor=#ffffff;" vertex="1" parent="1">
          <mxGeometry x="180" y="160" width="20" height="40" as="geometry" />
        </mxCell>
        <mxCell id="iSnh0fXEwwqfRtk5rcvv-28" value="X" style="rounded=0;whiteSpace=wrap;html=1;fillColor=#f8cecc;strokeColor=#b85450;gradientColor=#ea6b66;" vertex="1" parent="1">
          <mxGeometry x="220" y="160" width="20" height="40" as="geometry" />
        </mxCell>
        <mxCell id="iSnh0fXEwwqfRtk5rcvv-29" value="X" style="rounded=0;whiteSpace=wrap;html=1;fillColor=#f8cecc;gradientColor=#ea6b66;strokeColor=#b85450;" vertex="1" parent="1">
          <mxGeometry x="201" y="160" width="20" height="40" as="geometry" />
        </mxCell>
        <mxCell id="iSnh0fXEwwqfRtk5rcvv-30" value="" style="rounded=0;whiteSpace=wrap;html=1;fillColor=#dae8fc;strokeColor=#6c8ebf;gradientColor=#7ea6e0;" vertex="1" parent="1">
          <mxGeometry x="121" y="160" width="40" height="40" as="geometry" />
        </mxCell>
        <mxCell id="iSnh0fXEwwqfRtk5rcvv-31" value="" style="rounded=0;whiteSpace=wrap;html=1;fillColor=#dae8fc;strokeColor=#6c8ebf;gradientColor=#7ea6e0;" vertex="1" parent="1">
          <mxGeometry x="81" y="160" width="40" height="40" as="geometry" />
        </mxCell>
        <mxCell id="iSnh0fXEwwqfRtk5rcvv-32" value="" style="shape=curlyBracket;whiteSpace=wrap;html=1;rounded=1;labelPosition=left;verticalLabelPosition=middle;align=right;verticalAlign=middle;rotation=-90;" vertex="1" parent="1">
          <mxGeometry x="30" y="170.65" width="20" height="80" as="geometry" />
        </mxCell>
        <mxCell id="iSnh0fXEwwqfRtk5rcvv-33" value="checksum&lt;br&gt;2Bytes" style="text;strokeColor=none;fillColor=none;spacingLeft=4;spacingRight=4;overflow=hidden;rotatable=0;points=[[0,0.5],[1,0.5]];portConstraint=eastwest;fontSize=12;whiteSpace=wrap;html=1;align=center;" vertex="1" parent="1">
          <mxGeometry x="88" y="220" width="70" height="40" as="geometry" />
        </mxCell>
        <mxCell id="iSnh0fXEwwqfRtk5rcvv-34" value="data length&lt;br&gt;2Bytes" style="text;strokeColor=none;fillColor=none;spacingLeft=4;spacingRight=4;overflow=hidden;rotatable=0;points=[[0,0.5],[1,0.5]];portConstraint=eastwest;fontSize=12;whiteSpace=wrap;html=1;align=center;" vertex="1" parent="1">
          <mxGeometry x="485.35" y="221" width="70" height="39.48" as="geometry" />
        </mxCell>
        <mxCell id="iSnh0fXEwwqfRtk5rcvv-35" value="data&lt;br&gt;0~N Bytes" style="text;strokeColor=none;fillColor=none;spacingLeft=4;spacingRight=4;overflow=hidden;rotatable=0;points=[[0,0.5],[1,0.5]];portConstraint=eastwest;fontSize=12;whiteSpace=wrap;html=1;align=center;" vertex="1" parent="1">
          <mxGeometry x="636.24" y="220.13" width="69" height="39.35" as="geometry" />
        </mxCell>
        <mxCell id="iSnh0fXEwwqfRtk5rcvv-36" value="1: Need Ack" style="text;html=1;align=center;verticalAlign=middle;resizable=0;points=[];autosize=1;strokeColor=none;fillColor=none;" vertex="1" parent="1">
          <mxGeometry x="131" y="17" width="90" height="30" as="geometry" />
        </mxCell>
        <mxCell id="iSnh0fXEwwqfRtk5rcvv-37" value="1:no ack" style="text;html=1;align=center;verticalAlign=middle;resizable=0;points=[];autosize=1;strokeColor=none;fillColor=none;" vertex="1" parent="1">
          <mxGeometry x="158" y="57" width="70" height="30" as="geometry" />
        </mxCell>
        <mxCell id="iSnh0fXEwwqfRtk5rcvv-38" value="" style="rounded=0;whiteSpace=wrap;html=1;fillColor=#ffff88;strokeColor=#36393d;" vertex="1" parent="1">
          <mxGeometry x="340" y="160" width="20" height="40" as="geometry" />
        </mxCell>
        <mxCell id="iSnh0fXEwwqfRtk5rcvv-39" value="" style="rounded=0;whiteSpace=wrap;html=1;fillColor=#ffff88;strokeColor=#36393d;" vertex="1" parent="1">
          <mxGeometry x="360" y="160" width="20" height="40" as="geometry" />
        </mxCell>
        <mxCell id="iSnh0fXEwwqfRtk5rcvv-40" value="" style="rounded=0;whiteSpace=wrap;html=1;fillColor=#ffff88;strokeColor=#36393d;" vertex="1" parent="1">
          <mxGeometry x="380" y="160" width="20" height="40" as="geometry" />
        </mxCell>
        <mxCell id="iSnh0fXEwwqfRtk5rcvv-41" value="" style="rounded=0;whiteSpace=wrap;html=1;fillColor=#ffff88;strokeColor=#36393d;" vertex="1" parent="1">
          <mxGeometry x="400" y="160" width="20" height="40" as="geometry" />
        </mxCell>
        <mxCell id="iSnh0fXEwwqfRtk5rcvv-42" value="" style="rounded=0;whiteSpace=wrap;html=1;fillColor=#ffff88;strokeColor=#36393d;" vertex="1" parent="1">
          <mxGeometry x="420" y="160" width="20" height="40" as="geometry" />
        </mxCell>
        <mxCell id="iSnh0fXEwwqfRtk5rcvv-43" value="" style="rounded=0;whiteSpace=wrap;html=1;fillColor=#ffff88;strokeColor=#36393d;" vertex="1" parent="1">
          <mxGeometry x="440" y="160" width="20" height="40" as="geometry" />
        </mxCell>
        <mxCell id="iSnh0fXEwwqfRtk5rcvv-44" value="" style="rounded=0;whiteSpace=wrap;html=1;fillColor=#ffff88;strokeColor=#36393d;" vertex="1" parent="1">
          <mxGeometry x="460" y="160" width="20" height="40" as="geometry" />
        </mxCell>
        <mxCell id="iSnh0fXEwwqfRtk5rcvv-45" value="" style="rounded=0;whiteSpace=wrap;html=1;fillColor=#ffff88;strokeColor=#36393d;" vertex="1" parent="1">
          <mxGeometry x="320" y="160" width="20" height="40" as="geometry" />
        </mxCell>
        <mxCell id="iSnh0fXEwwqfRtk5rcvv-46" value="" style="shape=curlyBracket;whiteSpace=wrap;html=1;rounded=1;labelPosition=left;verticalLabelPosition=middle;align=right;verticalAlign=middle;rotation=90;size=0.5;" vertex="1" parent="1">
          <mxGeometry x="249.58" y="88.58" width="20" height="119.87" as="geometry" />
        </mxCell>
        <mxCell id="iSnh0fXEwwqfRtk5rcvv-47" value="" style="shape=curlyBracket;whiteSpace=wrap;html=1;rounded=1;labelPosition=left;verticalLabelPosition=middle;align=right;verticalAlign=middle;rotation=90;" vertex="1" parent="1">
          <mxGeometry x="390.88" y="69.63" width="20" height="157.76" as="geometry" />
        </mxCell>
        <mxCell id="iSnh0fXEwwqfRtk5rcvv-48" value="type:2^6=64" style="text;html=1;strokeColor=none;fillColor=none;align=center;verticalAlign=middle;whiteSpace=wrap;rounded=0;" vertex="1" parent="1">
          <mxGeometry x="229.57999999999998" y="110" width="60" height="30" as="geometry" />
        </mxCell>
        <mxCell id="iSnh0fXEwwqfRtk5rcvv-49" value="command idx:2^8=256" style="text;html=1;strokeColor=none;fillColor=none;align=center;verticalAlign=middle;whiteSpace=wrap;rounded=0;" vertex="1" parent="1">
          <mxGeometry x="355.38" y="110" width="87" height="30" as="geometry" />
        </mxCell>
        <mxCell id="iSnh0fXEwwqfRtk5rcvv-58" value="" style="rounded=0;whiteSpace=wrap;html=1;fillColor=#a20025;strokeColor=#6F0000;fontColor=#ffffff;" vertex="1" parent="1">
          <mxGeometry x="761" y="330" width="20" height="40" as="geometry" />
        </mxCell>
        <mxCell id="iSnh0fXEwwqfRtk5rcvv-59" value="" style="rounded=0;whiteSpace=wrap;html=1;fillColor=#a20025;strokeColor=#6F0000;fontColor=#ffffff;" vertex="1" parent="1">
          <mxGeometry x="680" y="330" width="20" height="40" as="geometry" />
        </mxCell>
        <mxCell id="iSnh0fXEwwqfRtk5rcvv-60" value="" style="rounded=0;whiteSpace=wrap;html=1;fillColor=#a20025;strokeColor=#6F0000;fontColor=#ffffff;" vertex="1" parent="1">
          <mxGeometry x="660" y="330" width="20" height="40" as="geometry" />
        </mxCell>
        <mxCell id="iSnh0fXEwwqfRtk5rcvv-61" value="" style="rounded=0;whiteSpace=wrap;html=1;fillColor=#a20025;strokeColor=#6F0000;fontColor=#ffffff;" vertex="1" parent="1">
          <mxGeometry x="640" y="330" width="20" height="40" as="geometry" />
        </mxCell>
        <mxCell id="iSnh0fXEwwqfRtk5rcvv-62" value="" style="rounded=0;whiteSpace=wrap;html=1;fillColor=#a20025;strokeColor=#6F0000;fontColor=#ffffff;" vertex="1" parent="1">
          <mxGeometry x="620" y="330" width="20" height="40" as="geometry" />
        </mxCell>
        <mxCell id="iSnh0fXEwwqfRtk5rcvv-63" value="" style="rounded=0;whiteSpace=wrap;html=1;fillColor=#a20025;strokeColor=#6F0000;fontColor=#ffffff;" vertex="1" parent="1">
          <mxGeometry x="600" y="330" width="20" height="40" as="geometry" />
        </mxCell>
        <mxCell id="iSnh0fXEwwqfRtk5rcvv-64" value="" style="rounded=0;whiteSpace=wrap;html=1;fillColor=#a20025;strokeColor=#6F0000;fontColor=#ffffff;" vertex="1" parent="1">
          <mxGeometry x="580" y="330" width="20" height="40" as="geometry" />
        </mxCell>
        <mxCell id="iSnh0fXEwwqfRtk5rcvv-65" value="" style="rounded=0;whiteSpace=wrap;html=1;fillColor=#a20025;strokeColor=#6F0000;fontColor=#ffffff;" vertex="1" parent="1">
          <mxGeometry x="560" y="330" width="20" height="40" as="geometry" />
        </mxCell>
        <mxCell id="iSnh0fXEwwqfRtk5rcvv-66" value="" style="endArrow=none;dashed=1;html=1;dashPattern=1 3;strokeWidth=2;rounded=0;entryX=0;entryY=0.75;entryDx=0;entryDy=0;exitX=1;exitY=0.75;exitDx=0;exitDy=0;" edge="1" parent="1" source="iSnh0fXEwwqfRtk5rcvv-59" target="iSnh0fXEwwqfRtk5rcvv-58">
          <mxGeometry width="50" height="50" relative="1" as="geometry">
            <mxPoint x="631" y="489.47999999999996" as="sourcePoint" />
            <mxPoint x="681" y="439.47999999999996" as="targetPoint" />
          </mxGeometry>
        </mxCell>
        <mxCell id="iSnh0fXEwwqfRtk5rcvv-67" value="" style="endArrow=none;html=1;rounded=0;entryX=1;entryY=1;entryDx=0;entryDy=0;exitX=0;exitY=0;exitDx=0;exitDy=0;" edge="1" parent="1" source="iSnh0fXEwwqfRtk5rcvv-51" target="iSnh0fXEwwqfRtk5rcvv-20">
          <mxGeometry width="50" height="50" relative="1" as="geometry">
            <mxPoint x="560" y="460" as="sourcePoint" />
            <mxPoint x="610" y="410" as="targetPoint" />
          </mxGeometry>
        </mxCell>
        <mxCell id="iSnh0fXEwwqfRtk5rcvv-68" value="" style="endArrow=none;html=1;rounded=0;entryX=1;entryY=1;entryDx=0;entryDy=0;exitX=1;exitY=0;exitDx=0;exitDy=0;" edge="1" parent="1" source="iSnh0fXEwwqfRtk5rcvv-58" target="iSnh0fXEwwqfRtk5rcvv-5">
          <mxGeometry width="50" height="50" relative="1" as="geometry">
            <mxPoint x="610" y="500" as="sourcePoint" />
            <mxPoint x="660" y="450" as="targetPoint" />
          </mxGeometry>
        </mxCell>
        <mxCell id="iSnh0fXEwwqfRtk5rcvv-74" value="" style="shape=curlyBracket;whiteSpace=wrap;html=1;rounded=1;labelPosition=left;verticalLabelPosition=middle;align=right;verticalAlign=middle;rotation=-90;" vertex="1" parent="1">
          <mxGeometry x="660.74" y="270.26" width="20" height="219.48" as="geometry" />
        </mxCell>
        <mxCell id="iSnh0fXEwwqfRtk5rcvv-75" value="ptp data&lt;br&gt;0~N Bytes" style="text;strokeColor=none;fillColor=none;spacingLeft=4;spacingRight=4;overflow=hidden;rotatable=0;points=[[0,0.5],[1,0.5]];portConstraint=eastwest;fontSize=12;whiteSpace=wrap;html=1;align=center;" vertex="1" parent="1">
          <mxGeometry x="636.24" y="390.13" width="69" height="39.35" as="geometry" />
        </mxCell>
        <mxCell id="iSnh0fXEwwqfRtk5rcvv-50" value="" style="rounded=0;whiteSpace=wrap;html=1;fillColor=#6a00ff;strokeColor=#3700CC;fontColor=#ffffff;" vertex="1" parent="1">
          <mxGeometry x="520.42" y="330" width="40" height="40" as="geometry" />
        </mxCell>
        <mxCell id="iSnh0fXEwwqfRtk5rcvv-51" value="" style="rounded=0;whiteSpace=wrap;html=1;fillColor=#6a00ff;strokeColor=#3700CC;fontColor=#ffffff;" vertex="1" parent="1">
          <mxGeometry x="480.41999999999996" y="330" width="40" height="40" as="geometry" />
        </mxCell>
        <mxCell id="iSnh0fXEwwqfRtk5rcvv-70" value="&lt;font style=&quot;font-size: 9px;&quot;&gt;ptp_cmd_type&lt;br&gt;2Bytes&lt;/font&gt;" style="text;strokeColor=none;fillColor=none;spacingLeft=4;spacingRight=4;overflow=hidden;rotatable=0;points=[[0,0.5],[1,0.5]];portConstraint=eastwest;fontSize=12;whiteSpace=wrap;html=1;align=center;" vertex="1" parent="1">
          <mxGeometry x="480" y="390" width="80" height="40" as="geometry" />
        </mxCell>
        <mxCell id="iSnh0fXEwwqfRtk5rcvv-71" value="" style="shape=curlyBracket;whiteSpace=wrap;html=1;rounded=1;labelPosition=left;verticalLabelPosition=middle;align=right;verticalAlign=middle;rotation=-90;" vertex="1" parent="1">
          <mxGeometry x="510" y="340.65" width="20" height="80" as="geometry" />
        </mxCell>
      </root>
    </mxGraphModel>
  </diagram>
</mxfile>
